# xmcd
#
# Track frame offsets:
#	150
#	10176
#	24096
#	31661
#	45354
#	61169
#	83046
#	99243
#	111988
#	128071
#
# Disc length: 1903 seconds
#
# Revision: 0
# Processed by: cddbd v1.5.2PL0 Copyright (c) Steve Scherf et al.
# Submitted via: AudioConverter v5.0 Copyright (c) Ultimate Shareware Ltd
#
DISCID=63076d0a
DTITLE=Willie Nelson - Hall of Fame - Willie Nelson
DYEAR=2006
DGENRE=Country
TTITLE0=On The Road Again
TTITLE1=Good Hearted Woman
TTITLE2=If You've Got The Money Honey, I've Got The Time
TTITLE3=Blue Eyes Crying In The Rain
TTITLE4=Always On My Mind
TTITLE5=City Of New Orleans
TTITLE6=Georgia On My Mind
TTITLE7=To All The Girls I've Loved Before
TTITLE8=Angel Flying Too Close To The Ground
TTITLE9=Whiskey River
EXTD=
EXTT0=
EXTT1=
EXTT2=
EXTT3=
EXTT4=
EXTT5=
EXTT6=
EXTT7=
EXTT8=
EXTT9=
PLAYORDER=
